<svg xmlns="http://www.w3.org/2000/svg" viewBox="0 0 64 64" fill="none">
  <defs>
    <linearGradient id="aiGrad" x1="0%" y1="0%" x2="100%" y2="100%">
      <stop offset="0%" stop-color="#00F0FF"/>
      <stop offset="100%" stop-color="#FF006E"/>
    </linearGradient>
  </defs>
  <!-- Brain outline -->
  <path d="M32 8C22 8 14 14 12 22c-3 1-5 4-5 8 0 3 2 6 4 7 1 8 8 15 17 17h8c9-2 16-9 17-17 2-1 4-4 4-7 0-4-2-7-5-8-2-8-10-14-20-14z" stroke="url(#aiGrad)" stroke-width="2" fill="none"/>
  <!-- Neural network nodes -->
  <circle cx="24" cy="22" r="3" fill="#00F0FF"/>
  <circle cx="40" cy="22" r="3" fill="#00F0FF"/>
  <circle cx="32" cy="18" r="2.5" fill="#a78bfa"/>
  <circle cx="20" cy="34" r="3" fill="#FF006E"/>
  <circle cx="44" cy="34" r="3" fill="#FF006E"/>
  <circle cx="32" cy="32" r="4" fill="url(#aiGrad)"/>
  <circle cx="26" cy="44" r="2.5" fill="#a78bfa"/>
  <circle cx="38" cy="44" r="2.5" fill="#a78bfa"/>
  <!-- Connections -->
  <line x1="24" y1="22" x2="32" y2="32" stroke="#00F0FF" stroke-width="1" opacity="0.6"/>
  <line x1="40" y1="22" x2="32" y2="32" stroke="#00F0FF" stroke-width="1" opacity="0.6"/>
  <line x1="32" y1="18" x2="32" y2="32" stroke="#a78bfa" stroke-width="1" opacity="0.5"/>
  <line x1="20" y1="34" x2="32" y2="32" stroke="#FF006E" stroke-width="1" opacity="0.6"/>
  <line x1="44" y1="34" x2="32" y2="32" stroke="#FF006E" stroke-width="1" opacity="0.6"/>
  <line x1="32" y1="32" x2="26" y2="44" stroke="#a78bfa" stroke-width="1" opacity="0.5"/>
  <line x1="32" y1="32" x2="38" y2="44" stroke="#a78bfa" stroke-width="1" opacity="0.5"/>
  <line x1="24" y1="22" x2="20" y2="34" stroke="#00F0FF" stroke-width="0.8" opacity="0.3"/>
  <line x1="40" y1="22" x2="44" y2="34" stroke="#FF006E" stroke-width="0.8" opacity="0.3"/>
</svg>
